<svg width="24" height="24" viewBox="0 0 24 24" fill="none" xmlns="http://www.w3.org/2000/svg">
<g id="Wind">
<path id="Vector" d="M12.1392 18.0308C12.2818 18.4164 12.5273 18.7556 12.8491 19.0115C13.171 19.2674 13.5567 19.4303 13.9646 19.4824C14.3724 19.5345 14.7868 19.4739 15.1626 19.3071C15.5384 19.1403 15.8613 18.8737 16.0963 18.5363C16.3313 18.1989 16.4693 17.8036 16.4955 17.3933C16.5216 16.9829 16.4348 16.5733 16.2445 16.2088C16.0542 15.8443 15.7677 15.539 15.4161 15.3259C15.0644 15.1127 14.6612 15 14.25 15H3.75" stroke="white" stroke-width="2" stroke-linecap="round" stroke-linejoin="round"/>
<path id="Vector_2" d="M9.13917 5.96919C9.28179 5.58355 9.52733 5.24436 9.84915 4.98845C10.171 4.73254 10.5567 4.56969 10.9646 4.51759C11.3724 4.46549 11.7868 4.52613 12.1626 4.69292C12.5384 4.8597 12.8613 5.12627 13.0963 5.46367C13.3313 5.80106 13.4693 6.19639 13.4955 6.60672C13.5216 7.01705 13.4348 7.4267 13.2445 7.79117C13.0542 8.15565 12.7677 8.46102 12.4161 8.67413C12.0644 8.88724 11.6612 8.99994 11.25 8.99999H2.25" stroke="white" stroke-width="2" stroke-linecap="round" stroke-linejoin="round"/>
<path id="Vector_3" d="M17.3892 8.96919C17.5318 8.58355 17.7773 8.24436 18.0991 7.98845C18.421 7.73254 18.8067 7.56969 19.2146 7.51759C19.6224 7.46549 20.0368 7.52613 20.4126 7.69291C20.7884 7.8597 21.1113 8.12627 21.3463 8.46367C21.5813 8.80106 21.7193 9.19639 21.7455 9.60672C21.7716 10.0171 21.6848 10.4267 21.4945 10.7912C21.3042 11.1556 21.0177 11.461 20.6661 11.6741C20.3144 11.8872 19.9112 11.9999 19.5 12H3" stroke="white" stroke-width="2" stroke-linecap="round" stroke-linejoin="round"/>
</g>
</svg>
